<svg width="36" height="37" viewBox="0 0 36 37" fill="none" xmlns="http://www.w3.org/2000/svg">
<path d="M17.9915 37C27.928 37 35.9831 28.7173 35.9831 18.5C35.9831 8.28273 27.928 0 17.9915 0C8.05508 0 0 8.28273 0 18.5C0 28.7173 8.05508 37 17.9915 37Z" fill="#41B4E6"/>
<path d="M16.2444 21.1955L24.3752 27.5078L28.4795 9.49268L7.50391 17.9767L13.8865 20.1505L25.535 12.1162L16.2444 21.1955Z" fill="white"/>
<path d="M13.8867 20.1505L15.6348 26.6186L16.2446 21.1955L25.5352 12.1162L13.8867 20.1505Z" fill="#D2D2D7"/>
<path d="M18.8871 23.2468L15.6348 26.6185L16.2446 21.1953L18.8871 23.2468Z" fill="#B9B9BE"/>
</svg>
