<svg xmlns="http://www.w3.org/2000/svg" fill="none" viewBox="0 0 225 308"><defs/><path fill="#E3BD22" d="M21.8 282.2L1 52.7h224l-20.6 229.4-91.6 25.9-91-25.8zm165.7-12.5L205 73.1h-91.7l.7 216.8 73.6-20.2zM104.6 102H82.3l-.2 117.7-43.3-11.8.1 26.9 65.7 17.7V102z"/><path fill="#fff" d="M97.3 250.3c-3-1-17.2-4.8-31.7-8.7l-26.3-7.1v-13.3c0-13 0-13.2 1.4-12.7l21.3 6 20 5.4.2-58.7.1-58.7h21.9v74.7c0 59.3-.2 74.6-.8 74.6-.5 0-3.3-.8-6.1-1.5z"/><path fill="#FDD700" d="M113.2 73h91.7l-17.4 196.6-74.3 20.3v-217zm69.6 163.7l6-73.5-44.5 5v-39.3l47.5-.2 2-26.8-71.8.3 1 97.7 43.3-7.5-.6 21.8-43.7 11.6.4 26.6 60.4-15.7z"/><path fill="#fff" fill-rule="evenodd" d="M189.3 163l-6 73.6-60.4 15.8-.4-26.7 43.7-11.6.6-21.8-43.4 7.5-1-97.6 71.8-.4-2 26.8-47.4.2v39.3l44.5-5z" clip-rule="evenodd"/><path fill="#231F20" fill-rule="evenodd" d="M95.3 0H106v38H78.5V27.4h17L95.3 0zm16.2 0h35.4v9.8h-25.6v4.6H147V38h-35.4v-9.8H137v-4.6h-25.6V0z" clip-rule="evenodd"/></svg>